<?xml version="1.0" encoding="utf-8"?>
<!-- Generator: Adobe Illustrator 16.0.0, SVG Export Plug-In . SVG Version: 6.00 Build 0)  -->
<!DOCTYPE svg PUBLIC "-//W3C//DTD SVG 1.1//EN" "http://www.w3.org/Graphics/SVG/1.1/DTD/svg11.dtd">
<svg version="1.1" id="Layer_1" xmlns="http://www.w3.org/2000/svg" xmlns:xlink="http://www.w3.org/1999/xlink" x="0px" y="0px"
	 width="171.208px" height="171.208px" viewBox="0 0 171.208 171.208" enable-background="new 0 0 171.208 171.208"
	 xml:space="preserve">
<path fill-rule="evenodd" class="c1" clip-rule="evenodd" fill="#FFED00" d="M29.021,171.208c0-78.528,63.66-142.188,142.188-142.188V6.884
	c-90.754,0-164.325,73.57-164.325,164.325H29.021z"/>
<path fill-rule="evenodd" class="c2" clip-rule="evenodd" fill="#276C21" d="M143.397,31.748c0.168-0.034,0.336-0.063,0.504-0.097
	c0.863-0.168,1.728-0.333,2.596-0.485c0.929-0.165,1.859-0.316,2.788-0.462l0.327-0.053c7.215-1.117,14.433-1.667,21.596-1.666
	V6.884c-8.479,0-16.807,0.643-24.939,1.881c-0.161,0.025-0.323,0.053-0.484,0.078c-1.043,0.162-2.082,0.335-3.118,0.517
	c-1.034,0.184-2.067,0.376-3.101,0.58c-0.16,0.031-0.321,0.06-0.481,0.092c-8.066,1.616-16.112,3.862-24.079,6.762l7.559,20.769
	C129.286,35.115,136.246,33.166,143.397,31.748z"/>
<path fill-rule="evenodd" class="c3" clip-rule="evenodd" fill="#D6270E" d="M30.646,149.641c0.025-0.164,0.054-0.326,0.079-0.49
	c0.139-0.875,0.28-1.75,0.435-2.625c0.162-0.924,0.337-1.843,0.516-2.76c0.022-0.113,0.042-0.227,0.065-0.34
	c1.418-7.161,3.369-14.13,5.82-20.861l-20.769-7.559c-2.899,7.967-5.144,16.013-6.762,24.079c-0.032,0.16-0.061,0.321-0.092,0.482
	c-0.204,1.033-0.396,2.066-0.58,3.1c-0.182,1.036-0.354,2.076-0.516,3.119c-0.026,0.161-0.053,0.322-0.078,0.483
	c-1.24,8.132-1.881,16.461-1.881,24.939h22.102C28.984,164.055,29.533,156.847,30.646,149.641z"/>
<line fill-rule="evenodd" clip-rule="evenodd" fill="none" stroke="#575656" stroke-width="0.2835" stroke-linecap="round" stroke-miterlimit="22.9256" x1="0.142" y1="141.045" x2="5.638" y2="142.014"/>
<line fill-rule="evenodd" clip-rule="evenodd" fill="none" stroke="#575656" stroke-width="0.2835" stroke-linecap="round" stroke-miterlimit="22.9256" x1="7.979" y1="111.798" x2="13.223" y2="113.707"/>
<line fill-rule="evenodd" clip-rule="evenodd" fill="none" stroke="#575656" stroke-width="0.2835" stroke-linecap="round" stroke-miterlimit="22.9256" x1="20.775" y1="84.356" x2="25.608" y2="87.146"/>
<line fill-rule="evenodd" clip-rule="evenodd" fill="none" stroke="#575656" stroke-width="0.2835" stroke-linecap="round" stroke-miterlimit="22.9256" x1="38.142" y1="59.553" x2="42.417" y2="63.14"/>
<line fill-rule="evenodd" clip-rule="evenodd" fill="none" stroke="#575656" stroke-width="0.2835" stroke-linecap="round" stroke-miterlimit="22.9256" x1="59.552" y1="38.142" x2="63.14" y2="42.417"/>
<line fill-rule="evenodd" clip-rule="evenodd" fill="none" stroke="#575656" stroke-width="0.2835" stroke-linecap="round" stroke-miterlimit="22.9256" x1="84.355" y1="20.775" x2="87.146" y2="25.608"/>
<line fill-rule="evenodd" clip-rule="evenodd" fill="none" stroke="#575656" stroke-width="0.2835" stroke-linecap="round" stroke-miterlimit="22.9256" x1="111.797" y1="7.979" x2="113.706" y2="13.223"/>
<line fill-rule="evenodd" clip-rule="evenodd" fill="none" stroke="#575656" stroke-width="0.2835" stroke-linecap="round" stroke-miterlimit="22.9256" x1="141.044" y1="0.142" x2="142.014" y2="5.638"/>
<line fill-rule="evenodd" clip-rule="evenodd" fill="none" stroke="#000000" stroke-width="1.1339" stroke-linecap="round" stroke-miterlimit="22.9256" x1="28.877" y1="89.029" x2="45.25" y2="98.482"/>
<line fill-rule="evenodd" clip-rule="evenodd" fill="none" stroke="#000000" stroke-width="1.1339" stroke-linecap="round" stroke-miterlimit="22.9256" x1="89.036" y1="28.874" x2="98.488" y2="45.244"/>
</svg>
