<?xml version="1.0" encoding="utf-8"?>
<!-- Generator: Adobe Illustrator 16.0.0, SVG Export Plug-In . SVG Version: 6.00 Build 0)  -->
<!DOCTYPE svg PUBLIC "-//W3C//DTD SVG 1.1//EN" "http://www.w3.org/Graphics/SVG/1.1/DTD/svg11.dtd">
<svg version="1.1" id="Layer_1" xmlns="http://www.w3.org/2000/svg" xmlns:xlink="http://www.w3.org/1999/xlink" x="0px" y="0px"
	 width="49.731px" height="27.02px" viewBox="0 0 49.731 27.02" enable-background="new 0 0 49.731 27.02" xml:space="preserve">
<path fill-rule="evenodd" clip-rule="evenodd" fill="#E3090F" d="M40.975,20.156c2.613-2.146,4.232-5.1,4.232-8.357
	C45.207,5.294,38.771,0,30.892,0c-3.442,0-6.602,1.004-9.078,2.682c2.165-1.073,4.69-1.697,7.392-1.697
	c7.889,0,14.314,5.294,14.314,11.789c0,2.779-1.18,5.343-3.14,7.362L40.975,20.156z"/>
<path fill-rule="evenodd" clip-rule="evenodd" fill="#565656" d="M1.882,11.165h1.385v-1.151H1.882V11.165L1.882,11.165z
	 M1.004,12.657v0.897h1.082v7.304c0,0.497,0.011,1.462-1.199,1.462c-0.331,0-0.614-0.088-0.887-0.166v0.965
	c0.399,0.068,0.77,0.146,1.17,0.146c0.614,0,1.238-0.146,1.638-0.604c0.459-0.526,0.459-1.2,0.479-1.95v-8.055H1.004L1.004,12.657z
	 M4.349,13.554h1.054v4.164c0,0.614,0.019,1.482,0.74,2.077c0.488,0.39,1.044,0.458,1.434,0.458c1.453,0,1.882-0.829,2.077-1.199
	l0.078,1.024h2.067v-0.897h-1.063v-6.524H8.503v0.897h1.053v2.418c-0.01,1.287-0.098,3.325-1.599,3.325
	c-0.215,0-0.586-0.039-0.868-0.273c-0.458-0.351-0.487-0.936-0.497-1.365v-5.002H4.349V13.554L4.349,13.554z M14.148,12.657h-2.096
	v0.897h1.053v8.523h-1.053v0.897h3.324v-0.897h-1.072v-2.799c0.244,0.292,0.839,0.995,2.048,0.995c1.473,0,2.867-1.248,2.867-3.9
	c0-1.141-0.234-2.292-1.034-3.091c-0.614-0.614-1.355-0.8-1.911-0.8c-1.141,0-1.696,0.731-2.087,1.209L14.148,12.657L14.148,12.657z
	 M16.147,13.505c1.269,0,1.883,1.297,1.883,2.808c0,0.917-0.176,2.126-0.976,2.682c-0.254,0.186-0.585,0.302-0.927,0.302
	c-0.771,0-1.287-0.487-1.569-1.209c-0.215-0.517-0.283-1.073-0.283-1.628C14.275,14.919,14.803,13.505,16.147,13.505L16.147,13.505z
	 M20.73,10.014v1.151h1.385v-1.151H20.73L20.73,10.014z M19.834,13.554h1.102v5.627h-1.102v0.897h3.335v-0.897h-1.054v-6.524h-2.281
	V13.554L19.834,13.554z M24.554,11.058v1.599h-1.093v0.897h1.093v4.798c0,0.8,0.029,1.873,1.931,1.873
	c0.321,0,0.614-0.04,0.994-0.098v-0.946c-0.272,0.049-0.526,0.087-0.779,0.087c-0.888,0-0.927-0.497-0.946-0.956v-4.759h1.628
	v-0.897h-1.628v-1.862L24.554,11.058L24.554,11.058z M33.145,17.747c-0.049,0.234-0.146,0.683-0.507,1.053
	c-0.225,0.244-0.634,0.507-1.248,0.507c-1.112,0-1.756-0.78-1.961-1.775c-0.078-0.429-0.078-0.79-0.068-1.111h5.12
	c0-0.556,0-1.043-0.225-1.775c-0.127-0.41-0.673-2.165-2.954-2.165c-0.712,0-1.269,0.195-1.688,0.458
	c-1.121,0.721-1.492,2.106-1.492,3.461c0,1.365,0.43,2.691,1.395,3.354c0.556,0.38,1.259,0.497,1.813,0.497
	c1.541,0,2.721-0.741,2.994-2.506H33.145L33.145,17.747z M29.391,15.533c0.038-0.341,0.067-0.731,0.341-1.199
	c0.205-0.351,0.624-0.926,1.58-0.926c0.955,0,1.804,0.673,1.94,2.125H29.391L29.391,15.533z M37.221,12.657h-2.067v0.897h1.053
	v5.627h-1.053v0.897h3.325v-0.897h-1.093v-2.896c0-0.604,0-1.336,0.479-1.921c0.165-0.214,0.585-0.614,1.336-0.614
	c0.204,0,0.39,0.029,0.604,0.059v-1.2c-0.264-0.039-0.449-0.087-0.673-0.087c-0.458,0-0.917,0.156-1.268,0.458
	c-0.342,0.303-0.479,0.585-0.604,0.868L37.221,12.657z"/>
<path fill-rule="evenodd" clip-rule="evenodd" fill="#565656" d="M19.239,23.598c0-0.088,0.02-0.137,0.039-0.175
	c0.029-0.039,0.068-0.049,0.107-0.049c0.038,0,0.077,0.01,0.097,0.049c0.029,0.039,0.049,0.097,0.049,0.175v0.585
	c0,0.088-0.02,0.146-0.049,0.176c-0.02,0.039-0.059,0.059-0.097,0.059c-0.039,0-0.068-0.02-0.098-0.049s-0.039-0.078-0.049-0.146
	c-0.01-0.166-0.078-0.293-0.205-0.4c-0.186-0.156-0.429-0.224-0.731-0.224c-0.312,0-0.556,0.068-0.731,0.224
	c-0.137,0.117-0.204,0.254-0.204,0.39c0,0.166,0.077,0.303,0.233,0.41c0.107,0.078,0.313,0.137,0.614,0.175
	c0.391,0.049,0.663,0.107,0.819,0.176c0.215,0.097,0.38,0.225,0.487,0.39c0.107,0.166,0.156,0.352,0.156,0.546
	c0,0.292-0.117,0.546-0.341,0.77c-0.234,0.225-0.576,0.341-1.015,0.341c-0.448,0-0.819-0.136-1.102-0.409
	c0,0.088,0,0.156-0.01,0.176c-0.01,0.029-0.029,0.048-0.049,0.068c-0.029,0.02-0.049,0.029-0.078,0.029
	c-0.049,0-0.078-0.02-0.107-0.049c-0.02-0.039-0.039-0.097-0.039-0.175v-0.702c0-0.078,0.02-0.137,0.039-0.175
	c0.029-0.039,0.059-0.049,0.107-0.049c0.039,0,0.068,0.01,0.098,0.049c0.029,0.029,0.039,0.078,0.039,0.136
	c0,0.126,0.029,0.224,0.078,0.312c0.077,0.127,0.204,0.234,0.38,0.322c0.166,0.088,0.38,0.126,0.634,0.126
	c0.361,0,0.634-0.078,0.819-0.244c0.176-0.166,0.263-0.341,0.263-0.526c0-0.214-0.087-0.38-0.272-0.507
	c-0.186-0.127-0.448-0.215-0.8-0.253c-0.351-0.049-0.604-0.107-0.751-0.176c-0.155-0.068-0.272-0.176-0.36-0.312
	c-0.088-0.146-0.127-0.292-0.127-0.458c0-0.292,0.117-0.526,0.36-0.692c0.234-0.175,0.517-0.263,0.849-0.263
	C18.684,23.247,18.995,23.364,19.239,23.598L19.239,23.598z M24.018,25.138c0,0.517-0.156,0.966-0.459,1.327
	c-0.312,0.37-0.683,0.555-1.111,0.555c-0.449,0-0.819-0.185-1.122-0.555c-0.312-0.371-0.468-0.81-0.468-1.327
	c0-0.526,0.156-0.965,0.468-1.336c0.303-0.371,0.673-0.556,1.122-0.556c0.429,0,0.8,0.185,1.111,0.556
	C23.861,24.173,24.018,24.612,24.018,25.138L24.018,25.138z M23.734,25.138c0-0.429-0.127-0.79-0.38-1.092
	c-0.254-0.302-0.557-0.448-0.917-0.448c-0.361,0-0.663,0.146-0.917,0.448c-0.253,0.303-0.38,0.664-0.38,1.092
	c0,0.419,0.127,0.78,0.38,1.083c0.254,0.302,0.556,0.458,0.917,0.458c0.36,0,0.663-0.146,0.917-0.448
	C23.607,25.928,23.734,25.558,23.734,25.138L23.734,25.138z M25.831,23.715v2.828h1.248c0.059,0,0.107,0.02,0.137,0.049
	s0.049,0.078,0.049,0.127c0,0.048-0.02,0.088-0.049,0.117c-0.029,0.039-0.078,0.049-0.137,0.049h-2.214
	c-0.068,0-0.117-0.01-0.146-0.049c-0.028-0.029-0.039-0.068-0.039-0.117c0-0.049,0.011-0.098,0.039-0.127
	c0.029-0.029,0.078-0.049,0.146-0.049h0.683v-2.828h-0.614c-0.068,0-0.117-0.02-0.146-0.049c-0.03-0.029-0.04-0.078-0.04-0.126
	c0-0.049,0.01-0.088,0.04-0.117c0.028-0.039,0.077-0.049,0.146-0.049h0.614v-0.517c0-0.293,0.098-0.537,0.293-0.751
	c0.194-0.215,0.448-0.312,0.761-0.312c0.272,0,0.556,0.029,0.857,0.088c0.117,0.019,0.186,0.048,0.205,0.078
	s0.039,0.068,0.039,0.117s-0.02,0.087-0.039,0.117c-0.029,0.03-0.068,0.049-0.107,0.049c-0.02,0-0.049,0-0.098-0.01
	c-0.331-0.068-0.624-0.097-0.857-0.097c-0.244,0-0.43,0.078-0.566,0.214c-0.136,0.156-0.204,0.322-0.204,0.507v0.517h1.326
	c0.068,0,0.117,0.01,0.146,0.049c0.029,0.029,0.039,0.068,0.039,0.126c0,0.049-0.01,0.088-0.039,0.117s-0.078,0.049-0.146,0.049
	H25.831L25.831,23.715z M29.438,23.374h1.531c0.068,0,0.117,0.01,0.146,0.049c0.029,0.029,0.039,0.068,0.039,0.126
	c0,0.049-0.01,0.088-0.039,0.117s-0.078,0.049-0.146,0.049h-1.531v2.272c0,0.195,0.059,0.361,0.195,0.497
	c0.127,0.127,0.322,0.195,0.575,0.195c0.186,0,0.391-0.029,0.614-0.107c0.225-0.068,0.4-0.146,0.518-0.234
	c0.049-0.029,0.087-0.049,0.117-0.049c0.028,0,0.067,0.02,0.087,0.049c0.029,0.039,0.049,0.078,0.049,0.127
	c0,0.039-0.02,0.078-0.049,0.107c-0.068,0.088-0.243,0.186-0.526,0.292c-0.273,0.107-0.536,0.156-0.79,0.156
	c-0.331,0-0.595-0.097-0.79-0.282c-0.194-0.186-0.292-0.439-0.292-0.751v-2.272h-0.518c-0.067,0-0.116-0.02-0.146-0.049
	s-0.039-0.078-0.039-0.126c0-0.049,0.01-0.088,0.039-0.117c0.029-0.039,0.078-0.049,0.146-0.049h0.518v-1.014
	c0-0.078,0.02-0.136,0.039-0.176c0.029-0.029,0.068-0.048,0.107-0.048s0.078,0.019,0.098,0.048c0.029,0.04,0.048,0.098,0.048,0.176
	V23.374L29.438,23.374z M35.114,26.884l-0.341,0.01L34.148,24.7l-0.624,2.194l-0.341-0.01l-0.586-3.169h-0.146
	c-0.059,0-0.107-0.02-0.137-0.049s-0.049-0.078-0.049-0.126c0-0.049,0.02-0.088,0.049-0.117c0.029-0.039,0.078-0.049,0.137-0.049
	h0.78c0.068,0,0.116,0.01,0.146,0.049c0.03,0.029,0.039,0.068,0.039,0.126c0,0.049-0.009,0.088-0.039,0.117
	c-0.029,0.029-0.077,0.049-0.146,0.049h-0.361l0.507,2.701l0.596-2.155h0.341l0.614,2.155l0.478-2.701h-0.351
	c-0.068,0-0.117-0.02-0.146-0.049s-0.049-0.078-0.049-0.126c0-0.049,0.02-0.088,0.049-0.117c0.029-0.039,0.078-0.049,0.146-0.049
	h0.771c0.068,0,0.117,0.01,0.146,0.049c0.028,0.029,0.049,0.068,0.049,0.126c0,0.049-0.021,0.088-0.049,0.117
	c-0.029,0.029-0.078,0.049-0.146,0.049h-0.137L35.114,26.884L35.114,26.884z M39.093,26.884v-0.487
	c-0.41,0.419-0.849,0.624-1.316,0.624c-0.342,0-0.604-0.107-0.8-0.312c-0.186-0.205-0.282-0.458-0.282-0.761
	c0-0.332,0.126-0.614,0.38-0.868c0.254-0.244,0.614-0.361,1.092-0.361c0.137,0,0.273,0.009,0.43,0.029
	c0.155,0.02,0.321,0.049,0.497,0.088V24.29c0-0.185-0.078-0.351-0.215-0.488c-0.146-0.136-0.36-0.205-0.653-0.205
	c-0.214,0-0.526,0.068-0.916,0.224c-0.078,0.029-0.117,0.039-0.146,0.039s-0.059-0.01-0.088-0.048
	c-0.029-0.029-0.039-0.068-0.039-0.117s0.01-0.078,0.029-0.107c0.039-0.039,0.166-0.097,0.38-0.166
	c0.352-0.117,0.615-0.176,0.8-0.176c0.352,0,0.634,0.107,0.829,0.322c0.205,0.215,0.303,0.449,0.303,0.722v2.252h0.38
	c0.068,0,0.117,0.02,0.146,0.049s0.039,0.078,0.039,0.127c0,0.048-0.01,0.088-0.039,0.117c-0.029,0.039-0.078,0.049-0.146,0.049
	H39.093L39.093,26.884z M39.093,25.187c-0.137-0.049-0.273-0.078-0.419-0.098c-0.156-0.02-0.313-0.029-0.469-0.029
	c-0.409,0-0.731,0.098-0.965,0.312c-0.176,0.166-0.264,0.351-0.264,0.575c0,0.205,0.068,0.38,0.205,0.517
	c0.127,0.146,0.321,0.214,0.575,0.214c0.243,0,0.478-0.058,0.683-0.175c0.215-0.117,0.429-0.302,0.653-0.565V25.187L39.093,25.187z
	 M41.794,23.374v0.858c0.37-0.399,0.644-0.663,0.829-0.771c0.175-0.117,0.351-0.175,0.507-0.175c0.166,0,0.321,0.068,0.468,0.205
	c0.146,0.136,0.215,0.244,0.215,0.312c0,0.049-0.02,0.088-0.039,0.127c-0.029,0.029-0.068,0.049-0.107,0.049
	c-0.029,0-0.039,0-0.059-0.01s-0.049-0.039-0.088-0.098c-0.078-0.087-0.146-0.156-0.204-0.195c-0.059-0.029-0.117-0.049-0.176-0.049
	c-0.117,0-0.264,0.059-0.439,0.175c-0.175,0.117-0.478,0.41-0.906,0.877v1.863h1.248c0.068,0,0.127,0.02,0.156,0.049
	s0.039,0.078,0.039,0.127c0,0.048-0.01,0.088-0.039,0.117c-0.029,0.039-0.088,0.049-0.156,0.049h-2.214
	c-0.068,0-0.116-0.01-0.146-0.049c-0.029-0.029-0.038-0.068-0.038-0.117c0-0.04,0.009-0.078,0.038-0.117
	c0.03-0.029,0.078-0.039,0.146-0.039h0.683v-2.847h-0.517c-0.068,0-0.117-0.02-0.146-0.049s-0.049-0.078-0.049-0.126
	c0-0.049,0.02-0.088,0.049-0.117c0.029-0.039,0.078-0.049,0.146-0.049H41.794L41.794,23.374z M47.791,25.207h-2.877
	c0.049,0.449,0.205,0.8,0.458,1.073c0.254,0.263,0.576,0.399,0.956,0.399c0.205,0,0.429-0.039,0.663-0.126
	c0.225-0.078,0.419-0.195,0.565-0.332c0.039-0.039,0.078-0.059,0.107-0.059c0.039,0,0.068,0.02,0.098,0.049
	c0.02,0.039,0.039,0.068,0.039,0.117s-0.02,0.098-0.059,0.137c-0.107,0.136-0.293,0.263-0.575,0.38
	c-0.273,0.117-0.556,0.175-0.839,0.175c-0.487,0-0.888-0.195-1.219-0.575c-0.322-0.38-0.478-0.849-0.478-1.385
	c0-0.498,0.146-0.927,0.448-1.277c0.312-0.361,0.683-0.537,1.131-0.537c0.458,0,0.839,0.185,1.141,0.546
	C47.654,24.163,47.801,24.631,47.791,25.207L47.791,25.207z M47.508,24.865c-0.059-0.38-0.205-0.683-0.438-0.917
	c-0.244-0.234-0.526-0.351-0.858-0.351c-0.331,0-0.614,0.107-0.848,0.341c-0.234,0.234-0.391,0.546-0.449,0.926H47.508z"/>
<path fill-rule="evenodd" clip-rule="evenodd" fill="#565656" d="M49.731,21.862c0-0.731-0.595-1.326-1.326-1.326
	s-1.326,0.595-1.316,1.326c0,0.731,0.585,1.326,1.316,1.326C49.137,23.178,49.731,22.593,49.731,21.862L49.731,21.862z
	 M49.575,21.862c0,0.644-0.526,1.17-1.17,1.17s-1.171-0.527-1.171-1.17s0.527-1.17,1.171-1.17S49.575,21.218,49.575,21.862
	L49.575,21.862z M47.918,22.554v-1.462h0.644c0.233,0,0.448,0.048,0.468,0.37c0.01,0.195-0.049,0.264-0.195,0.371
	c0.156,0.097,0.156,0.117,0.176,0.37c0.02,0.195-0.01,0.225,0.078,0.351h-0.225l-0.029-0.185c-0.039-0.176,0.049-0.439-0.253-0.439
	h-0.479v0.624H47.918L47.918,22.554z M48.571,21.257c0.116,0,0.292,0.029,0.263,0.283c-0.02,0.185-0.136,0.224-0.263,0.224h-0.469
	v-0.507H48.571z"/>
<path fill-rule="evenodd" clip-rule="evenodd" fill="#B3B3B3" d="M28.522,2.535c1.199,0,2.185,0.585,2.185,1.307
	s-0.985,1.307-2.185,1.307s-2.185-0.585-2.185-1.307S27.323,2.535,28.522,2.535z"/>
</svg>
