<?xml version="1.0" encoding="UTF-8"?>
<!DOCTYPE svg PUBLIC "-//W3C//DTD SVG 1.1//EN" "http://www.w3.org/Graphics/SVG/1.1/DTD/svg11.dtd">
<!-- Creator: CorelDRAW X7 -->
<svg xmlns="http://www.w3.org/2000/svg" xml:space="preserve" width="155px" height="85px" version="1.1" style="shape-rendering:geometricPrecision; text-rendering:geometricPrecision; image-rendering:optimizeQuality; fill-rule:evenodd; clip-rule:evenodd"
viewBox="0 0 155 85"
 xmlns:xlink="http://www.w3.org/1999/xlink">
 <defs>
  <style type="text/css">
   <![CDATA[
    .str0 {stroke:#FEFEFE;stroke-width:0.897629}
    .fil1 {fill:#FEFEFE}
    .fil2 {fill:#B3B3B3}
    .fil0 {fill:#E3090F}
   ]]>
  </style>
 </defs>
 <g id="Layer_x0020_1">
  <metadata id="CorelCorpID_0Corel-Layer"/>
  <path class="fil0 str0" d="M128 63c8,-6 13,-16 13,-26 0,-20 -20,-37 -45,-37 -10,0 -20,4 -28,9 7,-4 15,-5 23,-5 25,0 45,16 45,36 0,9 -4,17 -10,23l2 0z"/>
  <path class="fil1" d="M6 35l4 0 0 -3 -4 0 0 3 0 0zm-3 5l0 3 4 0 0 22c0,2 0,5 -4,5 -1,0 -2,0 -3,-1l0 4c1,0 2,0 4,0 2,0 4,0 5,-2 1,-2 1,-4 1,-6l0 -25 -7 0 0 0zm11 3l3 0 0 13c0,2 0,4 2,6 2,1 3,2 5,2 4,0 5,-3 6,-4l0 3 7 0 0 -3 -4 0 0 -20 -6 0 0 3 3 0 0 7c0,4 -1,11 -5,11 -1,0 -2,-1 -3,-1 -1,-1 -1,-3 -1,-5l0 -15 -7 0 0 3 0 0zm30 -3l-6 0 0 3 3 0 0 26 -3 0 0 3 10 0 0 -3 -3 0 0 -8c0,0 2,3 6,3 5,0 9,-4 9,-13 0,-3 -1,-7 -3,-9 -2,-2 -5,-3 -6,-3 -4,0 -6,3 -7,4l0 -3 0 0zm6 3c4,0 6,4 6,8 0,3 0,7 -3,9 -1,0 -2,1 -3,1 -2,0 -4,-2 -5,-4 0,-2 -1,-4 -1,-5 0,-5 2,-9 6,-9l0 0zm15 -11l0 3 4 0 0 -3 -4 0 0 0zm-3 11l3 0 0 17 -3 0 0 3 10 0 0 -3 -3 0 0 -20 -7 0 0 3 0 0zm15 -8l0 5 -4 0 0 3 4 0 0 15c0,2 0,5 6,5 1,0 1,0 3,0l0 -3c-1,0 -2,1 -3,1 -3,0 -3,-2 -3,-3l0 -15 5 0 0 -3 -5 0 0 -6 -3 1 0 0zm26 21c0,0 0,2 -1,3 -1,1 -2,2 -4,2 -4,0 -6,-3 -6,-6 -1,-1 -1,-2 0,-3l15 0c0,-2 0,-4 0,-6 -1,-1 -2,-7 -9,-7 -3,0 -4,1 -6,2 -3,2 -4,6 -4,11 0,4 1,8 4,10 2,1 4,2 6,2 4,0 8,-3 9,-8l-4 0 0 0zm-11 -7c0,-1 0,-2 1,-4 0,-1 2,-3 5,-3 3,0 5,2 6,7l-12 0 0 0zm24 -9l-6 0 0 3 3 0 0 17 -3 0 0 3 10 0 0 -3 -3 0 0 -9c0,-2 0,-4 1,-6 1,0 2,-2 4,-2 1,0 1,0 2,0l0 -3c-1,0 -1,-1 -2,-1 -1,0 -3,1 -4,2 -1,1 -1,2 -2,3l0 -4z"/>
  <path class="fil1" d="M60 74c0,0 0,0 0,-1 0,0 0,0 0,0 1,0 1,0 1,0 0,1 0,1 0,1l0 2c0,0 0,0 0,0 0,0 0,1 -1,1 0,0 0,-1 0,-1 0,0 0,0 0,0 0,-1 0,-1 -1,-1 0,-1 -1,-1 -2,-1 -1,0 -2,0 -2,1 -1,0 -1,0 -1,1 0,0 0,1 1,1 0,0 1,1 2,1 1,0 2,0 2,0 1,1 2,1 2,2 0,0 0,1 0,1 0,1 0,2 -1,3 0,0 -2,1 -3,1 -1,0 -2,-1 -3,-2 0,1 0,1 0,1 0,0 0,0 -1,0 0,0 0,0 0,0 0,0 0,0 0,0 0,0 0,0 0,0l0 -3c0,0 0,0 0,0 0,0 0,0 0,0 0,0 0,0 1,0 0,0 0,0 0,0 0,1 0,1 0,1 0,1 1,1 1,1 1,0 1,1 2,1 1,0 2,-1 3,-1 0,-1 0,-1 0,-2 0,0 0,-1 0,-1 -1,-1 -2,-1 -3,-1 -1,0 -2,0 -2,-1 -1,0 -1,0 -1,-1 -1,0 -1,-1 -1,-1 0,-1 1,-2 1,-2 1,-1 2,-1 3,-1 1,0 2,0 3,1l0 0zm15 5c0,1 -1,3 -2,4 -1,1 -2,2 -3,2 -1,0 -3,-1 -4,-2 -1,-1 -1,-3 -1,-4 0,-2 0,-3 1,-4 1,-2 3,-2 4,-2 1,0 2,0 3,2 1,1 2,2 2,4l0 0zm-1 0c0,-2 0,-3 -1,-4 -1,-1 -2,-1 -3,-1 -1,0 -2,0 -3,1 -1,1 -1,2 -1,4 0,1 0,2 1,3 1,1 2,2 3,2 1,0 2,-1 3,-2 1,-1 1,-2 1,-3l0 0zm7 -5l0 9 3 0c1,0 1,0 1,0 0,0 0,1 0,1 0,0 0,0 0,0 0,0 0,0 -1,0l-7 0c0,0 0,0 0,0 0,0 0,0 0,0 0,0 0,-1 0,-1 0,0 0,0 0,0l3 0 0 -9 -2 0c0,0 -1,0 -1,0 0,0 0,0 0,0 0,0 0,0 0,-1 0,0 0,0 1,0l2 0 0 -1c0,-1 0,-2 1,-3 0,0 1,-1 2,-1 1,0 2,0 3,1 0,0 0,0 0,0 0,0 0,0 0,0 0,0 0,1 0,1 0,0 0,0 0,0 0,0 0,0 0,0 -1,0 -2,-1 -3,-1 -1,0 -1,1 -2,1 0,1 0,1 0,2l0 1 4 0c0,0 0,0 0,0 0,1 0,1 0,1 0,0 0,0 0,0 0,0 0,0 0,0l-4 0 0 0zm11 -1l5 0c0,0 0,0 0,0 0,1 0,1 0,1 0,0 0,0 0,0 0,0 0,0 0,0l-5 0 0 7c0,1 0,2 0,2 1,0 1,1 2,1 1,0 1,0 2,-1 1,0 1,0 2,0 0,-1 0,-1 0,-1 0,0 0,0 0,1 0,0 0,0 0,0 0,0 0,0 0,0 0,1 0,1 -1,1 -1,1 -2,1 -3,1 -1,0 -2,-1 -2,-1 -1,-1 -1,-2 -1,-3l0 -7 -2 0c0,0 0,0 0,0 0,0 0,0 0,0 0,0 0,0 0,-1 0,0 0,0 0,0l2 0 0 -3c0,0 0,0 0,0 0,-1 0,-1 0,-1 0,0 1,0 1,1 0,0 0,0 0,0l0 3 0 0zm17 11l-1 0 -2 -7 -2 7 -1 0 -1 -10 -1 0c0,0 0,0 0,0 0,0 0,0 0,0 0,0 0,0 0,-1 0,0 0,0 0,0l3 0c0,0 0,0 0,0 0,1 0,1 0,1 0,0 0,0 0,0 0,0 0,0 0,0l-2 0 2 9 2 -7 1 0 2 7 1 -9 -1 0c0,0 0,0 0,0 0,0 0,0 0,0 0,0 0,0 0,-1 0,0 0,0 0,0l3 0c0,0 0,0 0,0 0,1 0,1 0,1 0,0 0,0 0,0 0,0 0,0 0,0l-1 0 -2 10 0 0zm13 0l0 -1c-1,1 -3,2 -4,2 -1,0 -2,-1 -3,-1 0,-1 -1,-2 -1,-3 0,-1 1,-2 2,-2 0,-1 1,-2 3,-2 0,0 1,1 1,1 1,0 1,0 2,0l0 -2c0,0 0,-1 -1,-1 0,-1 -1,-1 -2,-1 -1,0 -1,0 -3,1 0,0 0,0 0,0 0,0 0,0 0,0 -1,0 -1,-1 -1,-1 0,0 0,0 1,0 0,0 0,0 1,-1 1,0 2,0 2,0 1,0 2,0 3,1 0,1 1,1 1,2l0 7 1 0c0,0 0,0 0,0 0,0 0,1 0,1 0,0 0,0 0,0 0,0 0,0 0,0l-2 0 0 0zm0 -5c-1,0 -1,0 -1,0 -1,0 -1,0 -2,0 -1,0 -2,0 -3,1 0,0 -1,1 -1,1 0,1 0,2 1,2 0,0 1,1 2,1 0,0 1,-1 2,-1 0,0 1,-1 2,-2l0 -2 0 0zm8 -6l0 3c1,-1 2,-2 3,-2 0,-1 1,-1 1,-1 1,0 1,0 2,1 0,0 1,0 1,1 0,0 -1,0 -1,0 0,0 0,0 0,0 0,0 0,0 0,0 0,0 0,0 0,0 -1,0 -1,-1 -1,-1 0,0 0,0 -1,0 0,0 0,0 -1,1 0,0 -1,1 -3,2l0 6 4 0c0,0 1,0 1,0 0,0 0,1 0,1 0,0 0,0 0,0 0,0 -1,0 -1,0l-7 0c0,0 0,0 0,0 0,0 0,0 0,0 0,0 0,-1 0,-1 0,0 0,0 0,0l2 0 0 -9 -1 0c0,0 -1,0 -1,0 0,0 0,0 0,0 0,0 0,0 0,-1 0,0 1,0 1,0l2 0 0 0zm19 6l-9 0c0,1 1,3 1,3 1,1 2,2 3,2 1,0 2,-1 2,-1 1,0 2,0 2,-1 0,0 0,0 1,0 0,0 0,0 0,0 0,0 0,0 0,1 0,0 0,0 0,0 -1,0 -1,1 -2,1 -1,0 -2,1 -3,1 -1,0 -2,-1 -3,-2 -1,-1 -2,-3 -2,-4 0,-2 1,-3 1,-4 1,-2 3,-2 4,-2 1,0 3,0 4,2 1,1 1,2 1,4l0 0zm-1 -1c0,-1 -1,-2 -1,-3 -1,-1 -2,-1 -3,-1 -1,0 -2,0 -3,1 0,1 -1,2 -1,3l8 0 0 0z"/>
  <path class="fil1" d="M155 69c0,-3 -2,-5 -4,-5 -2,0 -4,2 -4,5 0,2 2,4 4,4 2,0 4,-2 4,-4l0 0zm0 0c0,2 -2,3 -4,3 -2,0 -4,-1 -4,-3 0,-2 2,-4 4,-4 2,0 4,2 4,4l0 0zm-6 2l0 -5 2 0c1,0 2,0 2,1 0,1 0,1 -1,1 1,1 1,1 1,2 0,0 0,0 0,1l-1 0 0 -1c0,0 0,-1 -1,-1l-1 0 0 2 -1 0 0 0zm2 -4c1,0 1,0 1,1 0,0 0,0 -1,0l-1 0 0 -1 1 0z"/>
  <path class="fil2" d="M89 8c4,0 7,2 7,4 0,3 -3,4 -7,4 -4,0 -7,-1 -7,-4 0,-2 3,-4 7,-4z"/>
 </g>
</svg>
