<?xml version="1.0" encoding="UTF-8"?>
<!DOCTYPE svg PUBLIC "-//W3C//DTD SVG 1.1//EN" "http://www.w3.org/Graphics/SVG/1.1/DTD/svg11.dtd">
<!-- Creator: CorelDRAW X7 -->
<svg xmlns="http://www.w3.org/2000/svg" xml:space="preserve" width="298px" height="162px" version="1.1" style="shape-rendering:geometricPrecision; text-rendering:geometricPrecision; image-rendering:optimizeQuality; fill-rule:evenodd; clip-rule:evenodd"
viewBox="0 0 14899 8095"
 xmlns:xlink="http://www.w3.org/1999/xlink">
 <defs>
  <style type="text/css">
   <![CDATA[
    .fil0 {fill:#E31E24}
    .fil1 {fill:#E5EAEE}
   ]]>
  </style>
 </defs>
 <g id="Layer_x0020_1">
  <metadata id="CorelCorpID_0Corel-Layer"/>
  <path class="fil0" d="M12275 6038c783,-642 1268,-1528 1268,-2503 0,-1949 -1928,-3535 -4288,-3535 -1032,0 -1978,301 -2720,803 648,-321 1405,-508 2214,-508 2364,0 4289,1586 4289,3532 0,832 -354,1601 -941,2205l178 6z"/>
  <path class="fil1" d="M564 3345l415 0 0 -345 -415 0 0 345zm-263 447l0 269 324 0 0 2188c0,148 3,438 -359,438 -99,0 -184,-27 -266,-50l0 289c120,21 231,44 351,44 184,0 371,-44 490,-181 138,-158 138,-359 143,-584l0 -2413 -683 0zm1002 269l315 0 0 1247c0,184 6,444 222,622 146,117 313,137 430,137 435,0 564,-248 622,-359l23 307 620 0 0 -269 -319 0 0 -1954 -669 0 0 269 316 0 0 724c-3,386 -29,996 -479,996 -64,0 -175,-12 -260,-82 -138,-105 -146,-280 -149,-409l0 -1498 -672 0 0 269zm2936 -269l-628 0 0 269 315 0 0 2553 -315 0 0 268 996 0 0 -268 -321 0 0 -839c73,88 251,298 613,298 441,0 859,-374 859,-1168 0,-342 -70,-687 -310,-926 -184,-184 -406,-240 -572,-240 -342,0 -509,219 -626,362l-11 -309zm599 254c379,0 563,388 563,841 0,275 -52,637 -292,804 -76,55 -175,90 -277,90 -231,0 -386,-146 -471,-362 -64,-155 -84,-321 -84,-488 0,-462 158,-885 561,-885zm1373 -1046l0 345 414 0 0 -345 -414 0zm-269 1061l330 0 0 1685 -330 0 0 269 999 0 0 -269 -316 0 0 -1954 -683 0 0 269zm1414 -748l0 479 -327 0 0 269 327 0 0 1437c0,239 9,561 578,561 97,0 184,-12 298,-30l0 -283c-82,15 -158,26 -234,26 -265,0 -277,-149 -283,-286l0 -1425 488 0 0 -269 -488 0 0 -558 -359 79zm2573 2004c-14,70 -43,204 -151,315 -68,73 -190,152 -374,152 -333,0 -526,-234 -588,-532 -23,-128 -23,-236 -20,-333l1534 0c0,-166 0,-312 -68,-531 -38,-123 -201,-649 -885,-649 -213,0 -379,59 -505,137 -336,217 -447,631 -447,1038 0,409 128,806 418,1004 166,114 377,149 543,149 462,0 815,-222 897,-750l-354 0zm-1124 -663c11,-103 20,-220 102,-360 61,-105 187,-277 473,-277 287,0 541,201 582,637l-1157 0zm2346 -862l-620 0 0 269 316 0 0 1685 -316 0 0 269 996 0 0 -269 -327 0 0 -868c0,-181 0,-400 143,-575 50,-64 176,-184 401,-184 61,0 116,9 181,17l0 -359c-79,-12 -135,-26 -202,-26 -137,0 -274,47 -380,137 -102,91 -143,175 -181,260l-11 -356z"/>
  <path class="fil1" d="M5764 7069c0,-26 6,-41 11,-52 9,-12 21,-15 33,-15 11,0 23,3 29,15 8,11 14,29 14,52l0 176c0,26 -6,43 -14,52 -6,12 -18,18 -29,18 -12,0 -21,-6 -30,-15 -8,-9 -11,-23 -14,-44 -3,-49 -24,-87 -62,-119 -55,-47 -128,-68 -219,-68 -93,0 -166,21 -219,68 -41,35 -61,76 -61,116 0,50 23,91 70,123 32,23 93,41 184,53 117,14 199,32 245,52 65,29 114,67 146,117 33,50 47,105 47,164 0,87 -35,163 -102,231 -70,67 -172,102 -304,102 -134,0 -245,-41 -330,-123 0,26 0,47 -3,53 -3,8 -9,14 -15,20 -8,6 -14,9 -23,9 -15,0 -23,-6 -32,-15 -6,-11 -12,-29 -12,-52l0 -211c0,-23 6,-41 12,-52 9,-12 17,-15 32,-15 12,0 21,3 29,15 9,9 12,23 12,41 0,38 9,67 23,93 24,38 62,70 114,97 50,26 114,38 190,38 108,0 190,-24 246,-74 52,-49 78,-102 78,-157 0,-65 -26,-114 -81,-152 -56,-38 -135,-64 -240,-76 -105,-15 -181,-32 -225,-53 -47,-20 -82,-52 -108,-93 -26,-44 -38,-88 -38,-137 0,-88 35,-158 108,-208 70,-52 155,-79 254,-79 117,0 211,35 284,105zm1431 462c0,155 -47,289 -137,397 -94,111 -205,167 -333,167 -135,0 -246,-56 -336,-167 -94,-111 -140,-242 -140,-397 0,-158 46,-289 140,-400 90,-111 201,-167 336,-167 128,0 239,56 333,167 90,111 137,242 137,400zm-85 0c0,-129 -38,-237 -114,-327 -75,-91 -166,-135 -274,-135 -108,0 -199,44 -275,135 -76,90 -114,198 -114,327 0,126 38,234 114,324 76,91 167,138 275,138 108,0 199,-44 274,-135 76,-90 114,-201 114,-327zm628 -427l0 848 374 0c18,0 33,5 41,14 9,9 15,24 15,38 0,15 -6,26 -15,35 -8,12 -23,15 -41,15l-663 0c-20,0 -35,-3 -44,-15 -8,-9 -11,-20 -11,-35 0,-14 3,-29 11,-38 9,-9 24,-14 44,-14l205 0 0 -848 -184 0c-21,0 -35,-5 -44,-14 -9,-9 -12,-24 -12,-38 0,-15 3,-26 12,-35 9,-12 23,-15 44,-15l184 0 0 -155c0,-87 29,-160 87,-225 59,-64 135,-93 228,-93 82,0 167,9 257,26 35,6 56,15 62,24 5,8 11,20 11,35 0,14 -6,26 -11,35 -9,8 -21,14 -32,14 -6,0 -15,0 -30,-3 -99,-20 -187,-29 -257,-29 -73,0 -128,24 -169,64 -41,47 -62,97 -62,152l0 155 398 0c20,0 35,3 44,15 8,9 11,20 11,38 0,14 -3,26 -11,35 -9,9 -24,14 -44,14l-398 0zm1081 -102l459 0c20,0 35,3 44,15 9,9 11,20 11,38 0,14 -2,26 -11,35 -9,9 -24,14 -44,14l-459 0 0 681c0,59 18,108 59,149 38,38 96,59 172,59 56,0 117,-9 184,-33 67,-20 120,-43 155,-70 15,-8 26,-14 35,-14 9,0 20,6 26,14 9,12 15,24 15,38 0,12 -6,24 -15,32 -20,27 -73,56 -157,88 -82,32 -161,47 -237,47 -99,0 -178,-29 -237,-85 -58,-55 -87,-131 -87,-225l0 -681 -155 0c-21,0 -35,-5 -44,-14 -9,-9 -12,-24 -12,-38 0,-15 3,-26 12,-35 9,-12 23,-15 44,-15l155 0 0 -304c0,-23 6,-41 11,-52 9,-9 21,-15 33,-15 11,0 23,6 29,15 8,11 14,29 14,52l0 304zm1701 1052l-103 3 -187 -658 -187 658 -102 -3 -175 -950 -44 0c-18,0 -32,-5 -41,-14 -9,-9 -14,-24 -14,-38 0,-15 5,-26 14,-35 9,-12 23,-15 41,-15l234 0c20,0 35,3 44,15 8,9 11,20 11,38 0,14 -3,26 -11,35 -9,9 -24,14 -44,14l-108 0 152 810 178 -646 102 0 184 646 143 -810 -105 0c-20,0 -35,-5 -44,-14 -9,-9 -14,-24 -14,-38 0,-15 5,-26 14,-35 9,-12 24,-15 44,-15l231 0c20,0 35,3 44,15 8,9 14,20 14,38 0,14 -6,26 -14,35 -9,9 -24,14 -44,14l-41 0 -172 950zm1191 0l0 -146c-122,125 -254,187 -394,187 -102,0 -181,-32 -239,-94 -56,-61 -85,-137 -85,-228 0,-99 38,-184 114,-260 76,-73 184,-108 327,-108 41,0 82,3 128,9 47,6 97,15 149,26l0 -163c0,-56 -23,-105 -64,-146 -44,-41 -108,-62 -196,-62 -64,0 -157,21 -274,68 -24,8 -35,11 -44,11 -9,0 -18,-3 -26,-14 -9,-9 -12,-21 -12,-35 0,-15 3,-24 9,-33 11,-11 49,-29 114,-49 105,-35 184,-53 239,-53 105,0 190,32 249,97 61,64 90,134 90,216l0 675 114 0c21,0 35,5 44,14 9,9 12,24 12,38 0,15 -3,26 -12,35 -9,12 -23,15 -44,15l-199 0zm0 -508c-40,-15 -81,-24 -125,-30 -47,-6 -94,-8 -140,-8 -123,0 -220,29 -290,93 -52,50 -78,105 -78,172 0,62 20,114 61,155 38,44 96,65 172,65 73,0 143,-18 205,-53 64,-35 128,-91 195,-170l0 -224zm810 -544l0 257c111,-120 192,-198 248,-231 52,-35 105,-52 152,-52 49,0 96,20 140,61 44,41 64,73 64,94 0,14 -6,26 -11,38 -9,8 -21,14 -33,14 -8,0 -11,0 -17,-3 -6,-3 -15,-11 -26,-29 -24,-26 -44,-47 -62,-58 -17,-9 -35,-15 -52,-15 -35,0 -79,18 -132,53 -52,35 -143,122 -271,263l0 558 374 0c20,0 37,5 46,14 9,9 12,24 12,38 0,15 -3,26 -12,35 -9,12 -26,15 -46,15l-664 0c-20,0 -35,-3 -43,-15 -9,-9 -12,-20 -12,-35 0,-11 3,-23 12,-35 8,-9 23,-12 43,-12l205 0 0 -853 -155 0c-20,0 -35,-5 -44,-14 -8,-9 -14,-24 -14,-38 0,-15 6,-26 14,-35 9,-12 24,-15 44,-15l240 0zm1796 549l-862 0c15,135 62,240 138,322 76,79 172,120 286,120 61,0 129,-12 199,-38 67,-24 125,-59 169,-100 12,-11 23,-17 32,-17 12,0 21,6 29,14 6,12 12,21 12,35 0,15 -6,30 -17,41 -33,41 -88,79 -173,114 -82,35 -166,53 -251,53 -146,0 -266,-59 -365,-173 -97,-114 -143,-254 -143,-414 0,-149 44,-278 134,-383 94,-108 205,-161 339,-161 137,0 251,56 342,164 90,111 134,251 131,423zm-85 -102c-17,-114 -61,-204 -131,-274 -73,-71 -158,-106 -257,-106 -99,0 -184,33 -254,103 -70,70 -117,163 -135,277l777 0z"/>
  <path class="fil1" d="M14899 6549c0,-219 -179,-397 -398,-397 -219,0 -397,178 -394,397 0,219 175,398 394,398 219,-3 398,-179 398,-398zm-47 0c0,193 -158,351 -351,351 -193,0 -350,-158 -350,-351 0,-192 157,-350 350,-350 193,0 351,158 351,350zm-497 208l56 0 0 -187 143 0c90,0 64,79 76,131l9 56 67 0c-27,-38 -18,-47 -24,-105 -5,-76 -5,-82 -52,-111 44,-33 61,-53 58,-111 -6,-97 -70,-111 -140,-111l-193 0 0 438zm196 -389c35,0 88,9 79,85 -6,55 -41,67 -79,67l-140 0 0 -152 140 0z"/>
  <path class="fil1" d="M8545 760c359,0 654,175 654,391 0,216 -295,391 -654,391 -360,0 -655,-175 -655,-391 0,-216 295,-391 655,-391z"/>
 </g>
</svg>
