<?xml version="1.0" encoding="utf-8"?>
<!-- Generator: Adobe Illustrator 16.0.0, SVG Export Plug-In . SVG Version: 6.00 Build 0)  -->
<!DOCTYPE svg PUBLIC "-//W3C//DTD SVG 1.1//EN" "http://www.w3.org/Graphics/SVG/1.1/DTD/svg11.dtd">
<svg version="1.1" id="Capa_1" xmlns="http://www.w3.org/2000/svg" xmlns:xlink="http://www.w3.org/1999/xlink" x="0px" y="0px"
	 width="841.889px" height="660.502px" viewBox="0 265.023 841.889 660.502" enable-background="new 0 265.023 841.889 660.502"
	 xml:space="preserve">
<path fill="#F6C358" d="M53.079,265.023h201.345c13.187,0,25.367,7.044,31.946,18.471l33.139,45.27
	c6.58,11.427,18.762,18.471,31.946,18.471h490.433v516.854c0,27.145-22.007,49.151-49.151,49.151H49.152
	C22.007,913.239,0,891.232,0,864.087V404.569c0-37.992,5.869-75.759,17.402-111.959l0,0
	C21.627,276.364,36.293,265.023,53.079,265.023z"/>
<rect x="76.613" y="338.779" fill="#EBF0F3" width="647.132" height="273.367"/>
<path fill="#FCD462" d="M805.026,289.599H602.126c-14.429,0-27.533,8.419-33.528,21.543l-34.721,75.986
	c-5.998,13.124-19.1,21.543-33.529,21.543H0v467.702c0,27.145,22.007,49.151,49.151,49.151h743.586
	c27.146,0,49.151-22.007,49.151-49.151V326.462C841.889,306.104,825.384,289.599,805.026,289.599z"/>
<g>
	<path d="M417.564,666.4c42.037,0,76.118-41.395,76.118-92.456c0-51.063-11.189-92.457-76.118-92.457
		c-64.93,0-76.121,41.393-76.121,92.456C341.443,625.005,375.524,666.4,417.564,666.4z"/>
	<path d="M273.789,807.569C273.777,804.455,273.764,806.692,273.789,807.569L273.789,807.569z"/>
	<path d="M561.33,810C561.371,809.148,561.344,804.086,561.33,810L561.33,810z"/>
	<path d="M561.168,803.835c-1.409-88.952-13.026-114.298-101.925-130.342c0,0-12.514,15.945-41.682,15.945
		c-29.167,0-41.683-15.945-41.683-15.945c-87.929,15.869-100.252,40.84-101.872,127.452c-0.133,7.072-0.195,7.444-0.219,6.623
		c0.006,1.538,0.012,4.384,0.012,9.346c0,0,21.165,42.666,143.762,42.666c122.596,0,143.763-42.666,143.763-42.666
		c0-3.188,0.002-5.405,0.005-6.913C561.306,810.509,561.258,809.525,561.168,803.835z"/>
</g>
</svg>
